#N canvas 384 178 672 490 10;
#X obj 80 87 unpack f f f f f f f f f f f f f f f f;
#X obj 80 121 pack f f;
#X obj 115 144 pack f f;
#X obj 149 120 pack f f;
#X obj 185 142 pack f f;
#X obj 218 118 pack f f;
#X obj 253 141 pack f f;
#X obj 287 117 pack f f;
#X obj 323 139 pack f f;
#X obj 80 25 dumpOSC 3005;
#N canvas 523 348 761 391 samples 0;
#X obj 36 221 soundfiler;
#X obj 272 23 table sample;
#X obj 37 29 loadbang;
#X msg 39 72 read -resize /music/samples/music/wonderwandered.wav sample
;
#X obj 42 250 s arraysize;
#X msg 85 95 read -resize /music/samples/music/seaworld.wav sample
;
#X msg 93 123 read -resize /music/samples/music/meddlestart.wav sample
;
#X msg 103 148 read -resize /music/samples/music/moonchild.wav sample
;
#X msg 106 178 read -resize /music/samples/music/carsofedenmidbit.wav
sample;
#X msg 174 218 read -resize /music/samples/music/further-noisy.wav
sample;
#X connect 0 0 4 0;
#X connect 2 0 3 0;
#X connect 3 0 0 0;
#X connect 5 0 0 0;
#X connect 6 0 0 0;
#X connect 7 0 0 0;
#X connect 8 0 0 0;
#X connect 9 0 0 0;
#X restore 323 16 pd samples;
#X obj 152 371 d-out~;
#X obj 345 268 d-pan~ 1;
#X floatatom 387 81 5 0 0 0 - - -;
#X msg 386 52 1;
#X obj 406 23 loadbang;
#X obj 80 55 OSCroute /pixelsum /activity;
#N canvas 0 302 510 360 base_sample_progress 0;
#X obj 72 234 phasor~;
#X obj 79 136 d-inv;
#X msg 126 138 0;
#X obj 71 270 *~;
#X floatatom 177 175 10 0 0 0 - - -;
#X obj 79 108 / 22050;
#X obj 104 43 r arraysize;
#X obj 49 177 *;
#X obj 12 9 inlet;
#X floatatom 44 148 5 0 0 0 - - -;
#X obj 22 118 clip 0 100;
#X obj 68 307 s~ base_sample_offset;
#X obj 14 61 clip 0 1;
#X obj 13 41 - 0.005;
#X obj 87 195 - 770000;
#X floatatom 206 101 10 0 0 0 - - -;
#X obj 210 262 d-snapshot~;
#X obj 12 82 * 50;
#X connect 0 0 3 0;
#X connect 1 0 4 0;
#X connect 1 0 7 1;
#X connect 2 0 0 1;
#X connect 3 0 11 0;
#X connect 3 0 16 0;
#X connect 5 0 1 0;
#X connect 6 0 2 0;
#X connect 6 0 5 0;
#X connect 6 0 14 0;
#X connect 6 0 15 0;
#X connect 7 0 0 0;
#X connect 8 0 13 0;
#X connect 10 0 7 0;
#X connect 10 0 9 0;
#X connect 12 0 17 0;
#X connect 13 0 12 0;
#X connect 14 0 3 1;
#X connect 17 0 10 0;
#X restore 438 138 pd base_sample_progress;
#X obj 35 233 d-pan~ 0;
#X obj 103 233 d-pan~ 0.143;
#X obj 192 230 d-pan~ 0.286;
#X obj 290 234 d-pan~ 0.429;
#X obj 47 262 d-pan~ 0.572;
#X obj 145 262 d-pan~ 0.715;
#X obj 243 265 d-pan~ 0.858;
#X obj 56 47 s osc;
#X msg 281 55 0 0 0 0 0 0 0 0 0 0 0 0 0 0 0 0 0 0 0 0 0 0 0 0 0 0;
#X obj 81 189 sampler 1;
#X obj 301 179 sampler 4;
#X obj 186 208 sampler 6;
#X obj 115 212 sampler 5;
#X obj 328 210 sampler 8;
#X obj 154 187 sampler 2;
#X obj 221 185 sampler 3;
#X obj 255 208 sampler 7;
#X connect 0 0 1 0;
#X connect 0 1 1 1;
#X connect 0 2 2 0;
#X connect 0 3 2 1;
#X connect 0 4 3 0;
#X connect 0 5 3 1;
#X connect 0 6 4 0;
#X connect 0 7 4 1;
#X connect 0 8 5 0;
#X connect 0 9 5 1;
#X connect 0 10 6 0;
#X connect 0 11 6 1;
#X connect 0 12 7 0;
#X connect 0 13 7 1;
#X connect 0 14 8 0;
#X connect 0 15 8 1;
#X connect 1 0 27 0;
#X connect 2 0 30 0;
#X connect 3 0 32 0;
#X connect 4 0 29 0;
#X connect 5 0 33 0;
#X connect 6 0 34 0;
#X connect 7 0 28 0;
#X connect 8 0 31 0;
#X connect 9 0 16 0;
#X connect 9 0 25 0;
#X connect 12 0 11 0;
#X connect 12 1 11 1;
#X connect 13 0 27 1;
#X connect 13 0 28 1;
#X connect 13 0 29 1;
#X connect 13 0 30 1;
#X connect 13 0 31 1;
#X connect 13 0 32 1;
#X connect 13 0 33 1;
#X connect 13 0 34 1;
#X connect 14 0 13 0;
#X connect 15 0 14 0;
#X connect 16 0 0 0;
#X connect 16 1 17 0;
#X connect 18 0 11 0;
#X connect 18 1 11 1;
#X connect 19 0 11 0;
#X connect 19 1 11 1;
#X connect 20 0 11 0;
#X connect 20 1 11 1;
#X connect 21 0 11 0;
#X connect 21 1 11 1;
#X connect 22 0 11 0;
#X connect 22 1 11 1;
#X connect 23 0 11 0;
#X connect 23 1 11 1;
#X connect 24 0 11 0;
#X connect 24 1 11 1;
#X connect 26 0 0 0;
#X connect 27 0 18 0;
#X connect 28 0 21 0;
#X connect 29 0 23 0;
#X connect 30 0 22 0;
#X connect 31 0 12 0;
#X connect 32 0 19 0;
#X connect 33 0 20 0;
#X connect 34 0 24 0;
