#N canvas 0 22 450 300 10;
#X obj 48 23 inlet~;
#X obj 222 26 inlet~;
#X obj 49 243 outlet~;
#X obj 229 246 outlet~;
#X obj 70 125 d-compress~ 2 10 0;
#X obj 257 126 d-compress~ 2 10 0;
#X connect 0 0 4 0;
#X connect 0 0 2 0;
#X connect 1 0 5 0;
#X connect 1 0 3 0;
#X connect 4 0 2 0;
#X connect 5 0 3 0;
