#N canvas 806 186 470 320 10;
#X msg 79 150 record;
#X obj 290 123 r stuff;
#X msg 198 157 dump;
#X msg 3 175 save;
#X obj 212 240 d-record grassage;
#X msg 4 143 load;
#X obj 44 240 r grassage;
#X msg 223 137 play;
#X msg 84 178 stop;
#X obj 50 284 outlet;
#X floatatom 234 99 5 0 0 0 - - -;
#X obj 213 54 metro 1000;
#X msg 313 57 stop;
#X obj 209 77 f 4;
#X obj 238 79 - 1;
#X obj 186 5 bng 15 250 50 0 empty empty empty 17 7 0 10 -262144 -1
-1;
#X obj 187 94 bng 15 250 50 0 empty empty empty 17 7 0 10 -262144 -1
-1;
#X obj 276 78 sel 0;
#X obj 185 26 t b b;
#X msg 165 66 3;
#X text 205 2 go in 4 seconds;
#X connect 0 0 4 0;
#X connect 2 0 4 0;
#X connect 3 0 4 0;
#X connect 5 0 4 0;
#X connect 6 0 9 0;
#X connect 7 0 4 0;
#X connect 8 0 4 0;
#X connect 11 0 13 0;
#X connect 11 0 16 0;
#X connect 12 0 11 0;
#X connect 13 0 14 0;
#X connect 13 0 10 0;
#X connect 13 0 17 0;
#X connect 14 0 13 1;
#X connect 15 0 18 0;
#X connect 17 0 12 0;
#X connect 17 0 7 0;
#X connect 18 0 11 0;
#X connect 18 1 19 0;
#X connect 19 0 13 1;
