#N canvas 570 417 482 332 10;
#X obj 31 206 osc~;
#X obj 54 225 *~;
#X obj 33 149 mtof;
#X obj 13 16 inlet;
#X obj 127 17 inlet;
#X obj 32 175 * \$1;
#X obj 72 127 d-smooth~ \$2;
#X obj 57 274 outlet~;
#X obj 38 58 random 100;
#X obj 38 92 * 0.001;
#X obj 30 123 +;
#X obj 37 34 loadbang;
#X obj 107 91 *;
#X obj 243 30 r smoothtime;
#X obj 138 38 r sensitivity;
#X obj 124 62 * 1;
#X obj 203 126 f \$2;
#X obj 214 99 loadbang;
#X obj 197 155 * 1;
#X connect 0 0 1 0;
#X connect 1 0 7 0;
#X connect 2 0 5 0;
#X connect 3 0 10 0;
#X connect 4 0 15 0;
#X connect 5 0 0 0;
#X connect 6 0 1 1;
#X connect 8 0 9 0;
#X connect 9 0 10 1;
#X connect 10 0 2 0;
#X connect 11 0 8 0;
#X connect 12 0 6 0;
#X connect 13 0 6 1;
#X connect 14 0 15 1;
#X connect 15 0 12 1;
#X connect 15 0 12 0;
#X connect 16 0 18 0;
#X connect 17 0 16 0;
#X connect 18 0 6 1;
