#N canvas 665 24 451 491 10;
#X obj 93 74 unpackOSC;
#X obj 225 57 playback;
#X obj 90 352 d-out~;
#X obj 92 104 routeOSC /pixelrow;
#X obj 91 128 route 0 1 2 3 4 5;
#X obj 351 25 loadbang;
#X msg 350 53 pentatonic;
#X obj 349 85 s mode;
#X obj 85 26 udpreceive 3020;
#X msg 226 79 0 0 0 0 0 0 0 0 0;
#X obj 170 163 row2 54 0.5;
#X obj 275 162 row2 54 4;
#X obj 92 161 row2 54 8;
#X obj 29 199 row2 54 8;
#X obj 133 185 row2 54 4;
#X obj 355 170 row2 54 1;
#X connect 0 0 3 0;
#X connect 1 0 3 0;
#X connect 3 0 4 0;
#X connect 4 0 12 0;
#X connect 4 1 10 0;
#X connect 4 2 11 0;
#X connect 4 3 15 0;
#X connect 4 4 13 0;
#X connect 4 5 14 0;
#X connect 5 0 6 0;
#X connect 6 0 7 0;
#X connect 8 0 0 0;
#X connect 9 0 10 0;
#X connect 9 0 11 0;
#X connect 9 0 12 0;
#X connect 9 0 13 0;
#X connect 9 0 14 0;
#X connect 9 0 15 0;
#X connect 10 0 2 0;
#X connect 10 1 2 1;
#X connect 11 0 2 0;
#X connect 11 1 2 1;
#X connect 12 0 2 0;
#X connect 12 1 2 1;
#X connect 13 0 2 0;
#X connect 13 1 2 1;
#X connect 14 0 2 0;
#X connect 14 1 2 1;
#X connect 15 0 2 0;
#X connect 15 1 2 1;
